<svg width="698" height="802" viewBox="0 0 698 802" fill="none" xmlns="http://www.w3.org/2000/svg">
<rect width="698" height="802" fill="black"/>
<rect width="150" height="802" fill="#FFB2B2"/>
<rect y="599" width="698" height="203" fill="#A0FDFF"/>
<path d="M75.75 128H74.75H75.75L89 73.25L99.75 33H131L142.25 208H109.5L104.75 112.5H103.5L85.5 183H65L47 112.5H45.75L41 208H8.25L19.5 33H50.75L61.5 73.25L74.75 128H75.75ZM12 400L12 225H101.75V255H46.25V296.75H95.75V325.75H46.25V371H102.75V400H12ZM46 563H68.5C73.1667 557.167 76.8333 548.667 79.5 537.5C82.3333 526.333 83.75 515.25 83.75 504.25C83.75 478.083 78.8333 459 69 447H46V563ZM12 592V417H84.5C108.167 438 120 466.5 120 502.5C120 538.333 108.917 568.167 86.75 592H12ZM55.2891 639H17.5391V609H127.039V639H89.2891V784H55.2891V639ZM216.541 784V609H250.791V784H216.541ZM413.641 704H412.641H413.641L426.891 649.25L437.641 609H468.891L480.141 784H447.391L442.641 688.5H441.391L423.391 759H402.891L384.891 688.5H383.641L378.891 784H346.141L357.391 609H388.641L399.391 649.25L412.641 704H413.641ZM575.281 784V609H665.031V639H609.531V680.75H659.031V709.75H609.531V755H666.031V784H575.281Z" fill="black"/>
<rect x="531.727" y="32" width="203" height="535" rx="101.5" transform="rotate(39.4202 531.727 32)" fill="#9FFDFF"/>
<path d="M510.194 379.5L347.194 256C319.36 286.5 264.701 354.838 250.694 372.5C227.694 401.5 186.694 475.5 263.694 525C325.294 564.6 378.027 535.833 396.694 516.5L510.194 379.5Z" fill="#FFB2B2"/>
</svg>
